<svg xmlns="http://www.w3.org/2000/svg" viewBox="41 74 1730 473" role="img" aria-label="Darrens Garage Services">
  <path d="M 731.50 514.68 C727.96,516.27 723.87,516.50 696.00,516.66 C653.91,516.90 649.67,515.75 644.07,502.67 C642.09,498.04 642.00,496.07 642.02,456.67 C642.03,411.59 642.13,410.70 647.94,403.78 C653.41,397.26 655.55,397.00 703.22,397.00 L 745.08 397.00 L 744.79 405.25 L 744.50 413.50 L 705.64 413.76 C668.36,414.01 666.66,414.11 663.91,416.06 C659.18,419.43 658.84,422.53 659.18,459.33 L 659.50 493.17 L 662.77 496.08 L 666.03 499.00 L 721.89 499.00 L 724.69 496.59 L 727.49 494.18 L 727.50 460.50 L 668.50 459.50 L 668.19 453.54 C668.03,450.26 668.15,446.55 668.47,445.28 L 669.04 442.98 L 706.77 443.24 L 744.50 443.50 L 744.77 470.49 C745.02,495.88 744.91,497.80 742.95,502.62 C740.54,508.57 737.12,512.17 731.50,514.68 ZM 1248.23 515.62 C1243.92,516.63 1232.40,516.97 1201.92,516.98 C1179.60,516.99 1161.03,516.70 1160.67,516.33 C1160.30,515.97 1160.00,511.97 1160.00,507.46 L 1160.00 499.26 L 1166.13 498.57 C1169.50,498.18 1187.65,497.97 1206.46,498.09 C1238.19,498.30 1240.89,498.18 1243.80,496.46 C1247.70,494.16 1248.31,490.85 1247.84,474.68 C1247.80,473.44 1247.79,472.29 1247.77,471.23 C1247.70,466.63 1247.65,463.69 1246.22,461.79 C1243.36,458.00 1234.96,458.37 1209.72,457.97 C1180.88,457.50 1175.97,457.20 1172.50,455.66 C1162.11,451.07 1159.00,443.89 1159.00,424.50 C1159.00,404.51 1161.86,398.35 1173.32,393.62 C1176.60,392.27 1183.29,392.03 1219.82,392.00 C1243.30,391.98 1263.08,391.97 1263.79,391.98 C1264.76,392.00 1265.01,394.13 1264.79,400.75 L 1264.50 409.50 L 1182.25 410.02 L 1179.63 412.65 C1177.17,415.11 1177.00,415.87 1177.00,424.58 C1177.00,432.98 1177.24,434.16 1179.41,436.69 L 1181.82 439.50 L 1214.66 440.09 C1236.45,440.48 1248.80,441.10 1251.35,441.92 C1257.12,443.76 1263.50,450.13 1265.01,455.54 C1265.82,458.42 1266.30,466.89 1266.33,478.78 C1266.38,496.82 1266.29,497.70 1263.81,503.11 C1260.65,510.01 1255.91,513.81 1248.23,515.62 ZM 94.02 412.00 L 93.50 516.50 L 85.23 516.79 C79.19,517.00 76.84,516.73 76.47,515.79 C76.20,515.08 76.10,487.50 76.24,454.50 L 76.50 394.50 L 119.83 394.50 C158.19,394.50 165.72,394.50 170.74,398.05 C171.98,398.92 173.06,400.02 174.43,401.38 C181.45,408.42 181.54,409.10 181.21,455.50 C180.89,500.06 180.62,502.51 175.25,508.64 C168.75,516.05 162.27,517.20 129.00,516.81 L 102.50 516.50 L 102.50 499.50 L 130.00 499.00 C156.91,498.51 157.55,498.45 159.77,496.24 C163.60,492.40 164.15,486.34 163.81,451.16 L 163.50 418.13 L 157.63 412.00 ZM 1500.78 360.75 C1501.26,362.31 1498.97,362.18 1492.50,360.28 C1482.62,357.38 1465.05,353.01 1455.50,351.07 C1453.30,350.63 1447.00,349.31 1441.50,348.15 C1436.00,346.99 1427.45,345.31 1422.50,344.42 C1417.55,343.52 1411.25,342.38 1408.50,341.89 C1398.99,340.17 1373.88,336.27 1367.00,335.45 C1364.53,335.15 1360.03,334.50 1357.00,334.01 C1315.46,327.18 1213.29,317.19 1142.00,312.98 C1132.38,312.41 1119.78,311.50 1114.00,310.95 C1108.22,310.41 1089.78,309.52 1073.00,308.98 C1056.22,308.43 1033.30,307.54 1022.05,307.00 C1010.80,306.45 997.21,306.00 991.86,306.00 C986.50,306.00 981.88,305.61 981.58,305.14 C979.48,301.73 1168.76,301.61 1201.50,305.01 C1206.45,305.52 1220.62,306.42 1233.00,307.01 C1269.50,308.76 1302.53,311.48 1328.50,314.89 C1332.90,315.47 1339.88,316.35 1344.00,316.85 C1357.51,318.48 1368.44,320.12 1372.12,321.07 C1374.10,321.58 1377.00,322.00 1378.55,322.00 C1380.09,322.00 1382.74,322.42 1384.43,322.93 C1386.12,323.44 1390.65,324.39 1394.50,325.03 C1409.12,327.46 1419.16,329.83 1441.50,336.09 C1447.55,337.79 1453.40,339.40 1454.50,339.67 C1455.60,339.95 1457.40,340.54 1458.50,340.99 C1459.60,341.44 1465.90,343.89 1472.50,346.43 C1485.85,351.57 1500.19,358.83 1500.78,360.75 ZM 761.00 347.99 C761.00,349.21 759.05,349.26 757.00,348.07 C753.89,346.28 698.58,328.26 684.50,324.45 C681.20,323.56 677.15,322.44 675.50,321.97 C672.19,321.02 654.53,316.35 649.00,314.97 C631.42,310.56 617.80,307.39 610.00,305.88 C606.97,305.29 602.70,304.46 600.50,304.02 C596.60,303.25 579.50,299.93 569.50,298.02 C564.48,297.06 557.95,296.02 544.00,293.97 C539.88,293.37 534.03,292.47 531.00,291.98 C527.97,291.49 522.12,290.82 518.00,290.49 C513.88,290.16 507.58,289.48 504.00,288.98 C479.58,285.54 430.31,283.72 397.52,285.03 C376.24,285.88 346.76,288.32 343.23,289.52 C342.53,289.76 339.83,289.66 337.23,289.30 C332.58,288.66 332.55,288.64 335.50,287.74 C345.49,284.68 375.75,279.71 400.50,277.06 C424.71,274.46 442.46,273.55 468.50,273.56 C507.80,273.57 531.39,275.56 563.00,281.51 C576.90,284.13 580.27,284.82 585.00,285.99 C587.47,286.61 591.30,287.48 593.50,287.93 C604.39,290.18 608.82,291.15 612.25,292.03 C614.31,292.56 617.69,293.41 619.75,293.92 C621.81,294.42 625.53,295.38 628.00,296.04 C632.21,297.17 634.59,297.83 646.00,301.01 C648.47,301.70 652.97,303.05 656.00,304.01 C659.03,304.96 665.55,306.96 670.50,308.43 C675.45,309.91 680.40,311.51 681.50,311.99 C682.60,312.48 686.42,313.86 690.00,315.06 C716.20,323.92 761.00,344.69 761.00,347.99 ZM 1664.42 400.39 C1663.55,400.73 1661.64,400.90 1660.17,400.78 C1658.70,400.66 1647.82,400.32 1636.00,400.03 C1613.09,399.47 1612.61,399.33 1616.75,394.73 C1617.62,393.76 1618.54,390.52 1618.79,387.53 C1619.36,380.61 1616.58,375.50 1608.02,367.76 C1598.97,359.56 1577.74,348.44 1559.00,342.08 C1555.43,340.86 1551.60,339.47 1550.50,338.99 C1549.40,338.50 1543.10,336.47 1536.50,334.46 L 1519.25 329.23 C1516.36,328.35 1514.00,327.27 1514.00,326.82 C1514.00,325.49 1519.86,325.97 1530.00,328.13 C1535.22,329.24 1541.19,330.38 1543.26,330.68 C1545.32,330.97 1547.26,331.61 1547.57,332.11 C1547.87,332.60 1549.12,333.00 1550.34,333.00 C1553.74,333.00 1576.39,340.31 1589.11,345.51 C1607.12,352.88 1634.56,368.04 1641.23,374.30 C1641.94,374.96 1645.21,377.74 1648.51,380.48 C1656.19,386.87 1666.00,397.02 1666.00,398.58 C1666.00,399.24 1665.29,400.06 1664.42,400.39 ZM 85.00 306.40 C82.53,308.06 78.81,311.00 76.75,312.92 C71.92,317.41 71.96,315.34 76.86,308.16 C78.98,305.05 82.57,299.58 84.84,296.00 C87.10,292.42 90.24,287.70 91.81,285.50 C93.38,283.30 95.98,279.37 97.58,276.76 C99.18,274.16 101.08,271.80 101.80,271.52 C103.28,270.96 136.88,272.68 141.50,273.56 C143.15,273.88 148.10,274.56 152.50,275.07 C160.63,276.02 169.08,277.34 174.50,278.51 C176.15,278.86 180.88,279.84 185.00,280.67 C193.43,282.37 199.04,284.02 200.45,285.20 C200.97,285.64 201.99,286.00 202.71,286.00 C205.04,286.00 213.15,290.25 212.31,291.03 C211.87,291.45 197.32,291.13 180.00,290.33 C123.05,287.69 109.32,290.01 85.00,306.40 Z" fill="#f2f4f1"/>
  <path d="M 1759.46 478.75 C1758.39,483.54 1756.40,481.00 1755.14,473.25 C1749.68,439.50 1735.03,415.02 1704.28,388.26 C1694.48,379.74 1685.12,373.05 1667.16,361.75 C1658.77,356.48 1628.23,341.01 1617.50,336.59 C1612.55,334.56 1607.63,332.41 1606.57,331.83 C1605.51,331.24 1601.46,329.62 1597.57,328.24 C1589.87,325.49 1579.38,321.64 1577.00,320.69 C1574.74,319.78 1549.14,311.52 1544.00,310.03 C1541.53,309.31 1538.15,308.34 1536.50,307.86 C1534.85,307.38 1529.68,306.05 1525.00,304.92 C1501.68,299.23 1493.08,297.23 1482.50,295.03 C1477.00,293.88 1470.93,292.55 1469.00,292.06 C1467.07,291.58 1458.75,290.00 1450.50,288.54 C1426.20,284.25 1424.73,283.96 1419.50,282.40 C1412.67,280.36 1405.49,279.18 1392.50,277.97 C1386.45,277.41 1380.82,276.69 1380.00,276.38 C1379.18,276.07 1376.03,275.44 1373.00,274.97 C1364.42,273.65 1349.01,271.08 1343.50,270.05 C1340.75,269.54 1336.47,268.85 1334.00,268.52 C1331.53,268.20 1326.80,267.49 1323.50,266.96 C1307.97,264.46 1291.48,261.94 1281.00,260.48 C1274.68,259.60 1267.25,258.48 1264.50,258.00 C1261.75,257.51 1256.12,256.60 1252.00,255.97 C1233.97,253.21 1237.47,254.67 1199.00,233.82 C1189.38,228.61 1176.78,221.84 1171.00,218.79 C1165.22,215.74 1158.93,212.36 1157.00,211.28 C1155.07,210.20 1146.07,205.36 1137.00,200.53 C1127.93,195.69 1111.72,186.98 1101.00,181.18 C1090.28,175.37 1078.80,169.20 1075.50,167.48 C1069.50,164.34 1046.93,152.18 1037.50,147.00 C1034.75,145.49 1028.45,142.11 1023.50,139.49 C1018.55,136.86 1009.33,131.90 1003.00,128.47 C996.67,125.03 988.58,121.20 985.00,119.95 C981.42,118.70 978.07,117.30 977.55,116.84 C977.03,116.38 975.78,116.00 974.79,116.00 C973.79,116.00 972.19,115.58 971.24,115.06 C969.67,114.22 954.62,110.57 941.50,107.87 C938.75,107.30 933.80,106.16 930.50,105.33 C927.20,104.50 917.97,103.41 910.00,102.90 C902.03,102.40 891.67,101.54 887.00,101.00 C875.88,99.70 834.78,99.72 814.50,101.03 C786.56,102.83 756.75,105.66 730.50,109.02 C726.65,109.51 720.04,110.34 715.81,110.87 C711.58,111.40 707.31,112.07 706.31,112.37 C705.32,112.68 698.99,113.39 692.27,113.96 C685.54,114.53 678.11,115.43 675.77,115.96 C673.42,116.49 668.80,117.42 665.50,118.04 C662.20,118.65 656.35,120.02 652.50,121.08 C648.65,122.14 644.02,123.00 642.22,123.00 C637.45,123.00 604.27,129.78 600.61,131.51 C598.90,132.31 595.03,133.47 592.00,134.09 C586.67,135.17 583.11,135.98 575.25,137.93 L 561.50 141.33 C556.00,142.69 549.25,144.50 546.50,145.35 C543.75,146.20 537.67,147.85 533.00,149.01 C528.33,150.18 520.90,152.18 516.50,153.46 C512.10,154.74 502.42,157.45 495.00,159.49 C487.58,161.53 480.60,163.56 479.50,164.00 C478.40,164.45 472.10,166.47 465.50,168.49 C458.90,170.51 452.60,172.52 451.50,172.96 C450.40,173.40 443.20,175.82 435.50,178.34 C419.18,183.68 390.56,193.62 380.50,197.43 C376.65,198.90 370.32,201.17 366.42,202.48 C362.53,203.79 357.81,205.54 355.92,206.36 C354.04,207.18 347.55,209.72 341.50,212.02 C335.45,214.31 327.54,217.49 323.92,219.09 C320.30,220.69 316.83,222.00 316.20,222.00 C315.57,222.00 312.68,223.11 309.78,224.46 C306.87,225.81 302.02,227.87 299.00,229.04 C290.11,232.47 264.01,243.79 257.50,247.04 C254.20,248.68 251.19,250.02 250.81,250.01 C250.43,250.01 244.58,252.66 237.81,255.90 C215.07,266.80 207.81,270.00 205.78,270.00 C204.68,270.00 200.78,267.38 197.13,264.18 C185.25,253.77 171.40,244.50 150.56,233.00 C143.30,229.00 111.39,213.00 110.66,213.00 C110.37,213.00 107.30,211.70 103.82,210.10 C100.34,208.51 92.78,205.28 87.00,202.93 C81.22,200.57 75.38,197.89 74.00,196.96 C72.62,196.03 69.70,194.66 67.50,193.91 C61.69,191.92 57.76,189.65 58.15,188.50 C58.57,187.29 72.39,187.66 79.50,189.07 C82.25,189.61 86.97,190.54 90.00,191.13 C120.32,197.03 158.91,212.98 193.50,233.90 C201.75,238.90 209.26,242.99 210.19,242.99 C211.12,243.00 219.11,239.40 227.94,235.00 C236.77,230.60 244.21,227.00 244.47,227.00 C244.73,227.00 247.54,225.83 250.72,224.39 C253.90,222.96 257.85,221.18 259.50,220.45 C276.77,212.77 283.90,209.72 292.00,206.55 C297.23,204.51 302.85,202.24 304.50,201.50 C306.15,200.76 309.98,199.21 313.00,198.05 C316.02,196.89 319.40,195.51 320.50,194.97 C321.60,194.44 324.98,193.14 328.00,192.09 C337.23,188.89 342.40,186.99 344.50,186.02 C345.60,185.52 348.52,184.43 351.00,183.60 C353.48,182.78 361.35,180.03 368.50,177.49 C375.65,174.96 384.20,172.00 387.50,170.92 C426.59,158.13 425.15,158.59 434.00,156.15 C435.92,155.62 441.33,153.98 446.00,152.50 C450.67,151.02 455.85,149.43 457.50,148.96 C462.16,147.64 473.61,144.35 483.50,141.47 C488.45,140.04 495.65,138.05 499.50,137.06 C503.35,136.06 512.80,133.57 520.50,131.52 C528.20,129.47 536.30,127.40 538.50,126.92 C540.70,126.44 545.20,125.34 548.50,124.47 C551.80,123.60 556.08,122.53 558.00,122.09 C559.92,121.65 571.40,119.01 583.50,116.22 C595.60,113.43 606.85,110.88 608.50,110.53 C610.15,110.19 613.08,109.53 615.00,109.06 C616.92,108.59 625.70,106.80 634.50,105.09 C643.30,103.37 652.30,101.54 654.50,101.02 C664.29,98.70 696.91,93.00 700.39,93.00 C701.81,93.00 704.89,92.57 707.24,92.05 C718.06,89.65 761.64,84.78 789.00,82.93 C813.28,81.28 889.31,82.29 904.50,84.46 C910.55,85.33 918.88,86.44 923.00,86.94 C936.38,88.56 962.99,93.74 972.00,96.49 C1002.96,105.94 1010.74,109.32 1052.50,131.50 C1062.66,136.90 1093.50,153.05 1114.50,163.98 C1122.20,167.99 1133.00,173.62 1138.50,176.49 C1166.08,190.93 1173.45,194.78 1184.50,200.60 C1191.10,204.07 1204.21,210.86 1213.62,215.70 C1223.04,220.54 1233.84,226.12 1237.62,228.10 C1244.73,231.82 1248.31,232.52 1278.00,236.01 C1295.71,238.09 1303.46,239.05 1327.00,242.08 C1339.93,243.75 1355.00,245.76 1360.50,246.56 C1366.00,247.36 1373.88,248.48 1378.00,249.05 C1411.23,253.66 1454.08,261.71 1487.00,269.52 C1493.32,271.02 1500.07,272.62 1502.00,273.07 C1506.39,274.10 1530.88,280.69 1545.78,284.86 C1551.99,286.59 1565.04,290.69 1574.78,293.98 L 1596.00 301.12 C1602.97,303.47 1609.98,306.12 1619.00,309.83 C1623.12,311.53 1629.88,314.24 1634.00,315.85 C1662.89,327.17 1700.91,348.31 1714.50,360.61 C1716.70,362.60 1720.09,365.67 1722.03,367.42 C1731.27,375.74 1745.33,394.41 1751.00,405.86 C1755.62,415.19 1758.78,426.01 1759.51,435.00 C1759.89,439.68 1760.63,445.48 1761.14,447.90 C1762.00,451.92 1760.88,472.41 1759.46,478.75 ZM 170.85 518.94 L 164.50 522.39 L 118.31 522.77 L 72.12 523.15 L 71.52 519.83 C71.20,518.00 71.06,487.73 71.21,452.56 L 71.50 388.63 L 74.73 387.79 C79.45,386.57 166.42,388.29 168.13,389.64 C168.88,390.24 170.70,391.01 172.17,391.36 C176.47,392.39 182.76,399.27 186.01,406.53 L 189.00 413.19 L 189.00 454.51 C189.00,488.79 188.75,496.32 187.54,498.67 C186.74,500.23 185.82,502.76 185.51,504.31 C184.66,508.45 178.08,515.02 170.85,518.94 ZM 724.74 522.04 C707.79,522.54 677.00,522.58 668.00,522.10 C654.72,521.41 649.58,519.43 643.20,512.57 C641.80,511.06 640.69,509.92 639.82,508.63 C636.50,503.71 636.50,496.55 636.50,458.89 L 636.50 455.50 C636.50,452.71 636.50,450.09 636.50,447.62 C636.48,415.47 636.48,408.92 639.43,404.22 C640.42,402.66 641.73,401.30 643.48,399.27 C647.95,394.08 652.08,392.03 660.24,390.97 C663.68,390.52 685.08,390.23 707.79,390.33 C743.26,390.48 749.21,390.71 750.05,392.00 C751.43,394.13 751.08,417.83 749.66,418.71 C749.04,419.09 730.48,419.43 708.42,419.45 C675.94,419.49 667.99,419.76 666.65,420.87 C664.56,422.61 664.20,436.96 666.25,437.07 C666.94,437.11 683.96,437.08 704.07,437.01 C724.18,436.94 743.01,437.20 745.91,437.58 L 751.19 438.28 L 750.82 469.89 C750.47,499.82 750.34,501.71 748.33,505.50 C743.81,514.00 732.68,521.81 724.74,522.04 ZM 1253.50 521.07 C1247.60,523.35 1246.77,523.40 1201.50,523.78 C1176.20,524.00 1155.16,523.84 1154.75,523.42 C1154.34,523.01 1154.00,515.77 1154.00,507.33 L 1154.00 492.00 L 1196.25 491.98 C1219.49,491.98 1239.00,491.64 1239.60,491.23 C1242.09,489.57 1242.77,486.08 1242.45,476.60 C1242.22,469.83 1241.70,466.43 1240.81,465.86 C1240.09,465.40 1226.90,465.01 1211.50,464.98 C1175.73,464.92 1168.88,463.59 1161.30,455.27 C1154.97,448.31 1153.75,444.12 1153.22,427.37 C1152.82,414.74 1153.03,411.26 1154.52,406.37 C1157.84,395.43 1162.10,390.98 1173.08,386.97 C1178.15,385.12 1181.18,385.00 1223.99,385.02 C1251.03,385.02 1270.11,385.42 1271.00,385.98 C1272.21,386.75 1272.50,389.53 1272.50,400.50 C1272.50,411.48 1272.21,414.25 1271.00,415.02 C1270.12,415.58 1252.30,415.98 1227.73,415.98 L 1185.95 416.00 L 1184.98 418.57 C1184.44,419.98 1184.00,422.87 1184.00,425.00 C1184.00,427.13 1184.44,430.02 1184.98,431.43 L 1185.95 434.00 L 1216.27 434.00 C1251.30,434.00 1255.58,434.63 1263.00,440.90 C1265.47,442.99 1268.73,447.13 1270.23,450.10 C1272.96,455.48 1272.97,455.57 1272.98,477.07 C1273.00,502.83 1272.35,505.65 1264.59,513.56 C1261.07,517.14 1257.65,519.46 1253.50,521.07 ZM 731.50 514.68 C737.12,512.17 740.54,508.57 742.95,502.62 C744.91,497.80 745.02,495.88 744.77,470.49 L 744.50 443.50 L 706.77 443.24 L 669.04 442.98 L 668.47 445.28 C668.15,446.55 668.03,450.26 668.19,453.54 L 668.50 459.50 L 727.50 460.50 L 727.49 494.18 L 724.69 496.59 L 721.89 499.00 L 666.03 499.00 L 662.77 496.08 L 659.50 493.17 L 659.18 459.33 C658.84,422.53 659.18,419.43 663.91,416.06 C666.66,414.11 668.36,414.01 705.64,413.76 L 744.50 413.50 L 744.79 405.25 L 745.08 397.00 L 703.22 397.00 C655.55,397.00 653.41,397.26 647.94,403.78 C642.13,410.70 642.03,411.59 642.02,456.67 C642.00,496.07 642.09,498.04 644.07,502.67 C649.67,515.75 653.91,516.90 696.00,516.66 C723.87,516.50 727.96,516.27 731.50,514.68 ZM 1248.23 515.62 C1255.91,513.81 1260.65,510.01 1263.81,503.11 C1266.29,497.70 1266.38,496.82 1266.33,478.78 C1266.30,466.89 1265.82,458.42 1265.01,455.54 C1263.50,450.13 1257.12,443.76 1251.35,441.92 C1248.80,441.10 1236.45,440.48 1214.66,440.09 L 1181.82 439.50 L 1179.41 436.69 C1177.24,434.16 1177.00,432.98 1177.00,424.58 C1177.00,415.87 1177.17,415.11 1179.63,412.65 L 1182.25 410.02 L 1264.50 409.50 L 1264.79 400.75 C1265.01,394.13 1264.76,392.00 1263.79,391.98 C1263.08,391.97 1243.30,391.98 1219.82,392.00 C1183.29,392.03 1176.60,392.27 1173.32,393.62 C1161.86,398.35 1159.00,404.51 1159.00,424.50 C1159.00,443.89 1162.11,451.07 1172.50,455.66 C1175.97,457.20 1180.88,457.50 1209.72,457.97 C1234.96,458.37 1243.36,458.00 1246.22,461.79 C1247.65,463.69 1247.70,466.63 1247.77,471.23 C1247.79,472.29 1247.80,473.44 1247.84,474.68 C1248.31,490.85 1247.70,494.16 1243.80,496.46 C1240.89,498.18 1238.19,498.30 1206.46,498.09 C1187.65,497.97 1169.50,498.18 1166.13,498.57 L 1160.00 499.26 L 1160.00 507.46 C1160.00,511.97 1160.30,515.97 1160.67,516.33 C1161.03,516.70 1179.60,516.99 1201.92,516.98 C1232.40,516.97 1243.92,516.63 1248.23,515.62 ZM 94.02 412.00 L 157.63 412.00 L 163.50 418.13 L 163.81 451.16 C164.15,486.34 163.60,492.40 159.77,496.24 C157.55,498.45 156.91,498.51 130.00,499.00 L 102.50 499.50 L 102.50 516.50 L 129.00 516.81 C162.27,517.20 168.75,516.05 175.25,508.64 C180.62,502.51 180.89,500.06 181.21,455.50 C181.54,409.10 181.45,408.42 174.43,401.38 C173.06,400.02 171.98,398.92 170.74,398.05 C165.72,394.50 158.19,394.50 119.83,394.50 L 76.50 394.50 L 76.24 454.50 C76.10,487.50 76.20,515.08 76.47,515.79 C76.84,516.73 79.19,517.00 85.23,516.79 L 93.50 516.50 ZM 101.45 491.92 C102.31,493.31 151.80,493.41 155.43,492.02 L 158.00 491.05 L 158.00 419.20 L 154.85 418.10 C151.22,416.83 104.21,416.58 102.27,417.81 C101.33,418.41 101.01,427.31 100.91,454.72 C100.84,474.58 101.08,491.33 101.45,491.92 ZM 666.66 491.74 C667.94,492.68 674.98,493.00 694.08,493.00 C716.60,493.00 719.86,492.80 720.39,491.42 C720.73,490.55 721.00,484.71 721.00,478.44 C721.00,467.45 720.92,467.02 718.75,466.49 C717.51,466.19 705.03,466.06 691.00,466.22 L 665.50 466.50 L 665.22 478.49 C664.97,488.89 665.16,490.64 666.66,491.74 ZM 342.03 289.65 C341.34,289.76 340.66,289.87 340.00,289.98 C334.43,290.92 316.82,292.15 320.50,291.34 C321.60,291.09 323.40,290.51 324.50,290.04 C327.13,288.92 334.05,287.25 341.50,285.95 C344.80,285.37 349.52,284.52 352.00,284.06 C371.30,280.46 390.68,277.80 410.38,276.06 C407.18,276.36 403.91,276.69 400.50,277.06 C375.75,279.71 345.49,284.68 335.50,287.74 C332.55,288.64 332.58,288.66 337.23,289.30 C339.00,289.55 340.83,289.67 342.03,289.65 ZM 1523.18 326.82 C1517.28,325.84 1514.00,325.82 1514.00,326.82 C1514.00,327.27 1516.36,328.35 1519.25,329.23 L 1529.74 332.41 C1522.03,330.12 1514.60,328.01 1512.25,327.52 C1510.46,327.15 1509.00,326.43 1509.00,325.92 C1509.00,324.57 1512.83,324.79 1523.18,326.82 ZM 439.88 284.81 C420.59,284.50 400.67,284.84 382.65,285.79 C387.76,285.48 392.84,285.22 397.52,285.03 C410.01,284.53 424.89,284.48 439.88,284.81 ZM 357.16 287.72 C352.32,288.22 347.80,288.78 343.67,289.40 C345.54,288.94 350.55,288.34 357.16,287.72 Z" fill="rgb(108,178,85)"/>
  <path d="M 727.74 522.85 C721.13,524.44 666.40,524.22 659.00,522.57 C651.98,521.00 646.26,518.04 642.12,513.83 C640.75,512.44 639.66,511.39 638.80,510.19 C635.50,505.56 635.50,498.56 635.50,460.57 C635.50,459.25 635.50,457.90 635.50,456.50 C635.50,412.34 635.61,409.29 637.39,406.00 C641.01,399.28 645.11,395.09 650.79,392.30 L 656.50 389.50 L 700.91 389.17 C725.33,388.99 746.82,389.12 748.66,389.46 L 752.00 390.09 L 752.00 421.00 L 710.20 421.00 C679.02,421.00 668.10,421.30 667.20,422.20 C665.54,423.86 665.59,435.99 667.25,436.04 C667.94,436.07 685.83,436.05 707.00,436.01 C728.17,435.97 746.99,436.24 748.81,436.60 L 752.12 437.27 L 751.81 469.39 C751.51,500.69 751.44,501.63 749.13,506.74 C745.30,515.22 738.67,520.22 727.74,522.85 ZM 1135.37 265.21 C1134.73,266.25 980.27,266.24 979.62,265.19 C979.34,264.75 981.91,263.82 985.31,263.14 C988.71,262.45 993.08,261.49 995.00,261.01 C998.48,260.13 1015.86,256.46 1023.50,254.99 C1027.30,254.26 1034.31,252.75 1042.00,251.00 C1043.93,250.57 1049.07,249.49 1053.44,248.62 C1061.56,246.99 1064.17,245.69 1062.45,244.15 C1061.25,243.08 1043.15,230.21 1032.25,222.69 C1011.47,208.36 1006.75,205.05 995.50,196.98 C978.43,184.74 962.10,175.58 947.50,170.07 C944.20,168.82 940.60,167.41 939.50,166.93 C938.40,166.45 933.90,165.10 929.50,163.94 C925.10,162.77 919.92,161.38 918.00,160.84 C910.80,158.81 888.05,154.72 875.00,153.11 C861.82,151.48 830.12,149.86 824.00,150.50 C820.97,150.81 811.30,151.51 802.50,152.04 C785.83,153.06 764.97,155.18 754.25,156.96 C737.11,159.81 731.59,160.88 713.00,165.01 C705.56,166.67 704.96,167.26 706.20,171.80 C706.76,173.83 707.48,175.94 707.80,176.47 C708.44,177.52 715.00,196.22 720.46,212.50 C722.30,218.00 724.56,224.39 725.49,226.69 C729.26,236.08 726.54,234.36 715.00,220.03 C708.67,212.18 701.70,203.63 699.50,201.03 C697.30,198.43 692.65,192.64 689.17,188.17 C681.46,178.27 676.25,173.98 671.09,173.29 C667.73,172.84 653.30,175.06 640.50,178.01 C638.30,178.52 633.80,179.43 630.50,180.04 C627.20,180.66 622.70,181.57 620.50,182.08 C618.30,182.58 612.90,183.68 608.50,184.52 C604.10,185.35 598.70,186.45 596.50,186.97 C594.30,187.48 586.20,189.07 578.50,190.51 C570.80,191.94 563.15,193.50 561.50,193.96 C559.85,194.43 555.35,195.35 551.50,196.01 C547.65,196.67 543.47,197.61 542.20,198.10 C540.94,198.60 538.91,199.00 537.69,199.00 C534.99,199.00 510.02,205.21 501.00,208.12 C490.83,211.41 473.00,219.07 467.50,222.53 C460.82,226.72 453.86,233.64 451.68,238.25 C450.70,240.31 449.51,242.00 449.02,242.00 C447.17,242.00 444.00,236.07 444.00,232.60 C444.00,221.83 469.62,207.93 509.50,197.06 C514.37,195.73 544.11,188.91 549.00,188.00 C551.47,187.54 556.65,186.41 560.50,185.49 C567.46,183.83 584.96,179.95 594.50,177.95 C597.25,177.37 601.30,176.49 603.50,175.98 C605.70,175.47 613.12,173.91 620.00,172.51 C626.88,171.10 634.08,169.53 636.00,169.00 C637.92,168.47 644.90,166.95 651.50,165.60 C668.14,162.21 669.05,162.02 673.00,161.06 C674.92,160.59 678.75,159.71 681.50,159.12 C684.25,158.53 689.65,157.34 693.50,156.48 C697.35,155.63 702.75,154.45 705.50,153.86 C708.25,153.28 712.08,152.44 714.00,152.00 C738.92,146.32 766.98,140.93 779.50,139.41 C781.70,139.15 786.65,138.49 790.50,137.95 C802.56,136.26 838.68,134.00 853.60,134.00 C869.41,134.00 897.57,136.27 911.50,138.66 C916.45,139.51 922.53,140.56 925.00,140.99 C929.13,141.70 940.42,144.59 949.00,147.12 C956.60,149.36 968.53,154.08 974.14,157.07 C976.14,158.13 978.84,159.57 980.14,160.26 C981.44,160.96 985.20,163.36 988.50,165.60 C996.81,171.24 1064.83,216.88 1103.68,242.88 C1121.38,254.72 1135.64,264.77 1135.37,265.21 ZM 724.74 522.04 C732.68,521.81 743.81,514.00 748.33,505.50 C750.34,501.71 750.47,499.82 750.82,469.89 L 751.19 438.28 L 745.91 437.58 C743.01,437.20 724.18,436.94 704.07,437.01 C683.96,437.08 666.94,437.11 666.25,437.07 C664.20,436.96 664.56,422.61 666.65,420.87 C667.99,419.76 675.94,419.49 708.42,419.45 C730.48,419.43 749.04,419.09 749.66,418.71 C751.08,417.83 751.43,394.13 750.05,392.00 C749.21,390.71 743.26,390.48 707.79,390.33 C685.08,390.23 663.68,390.52 660.24,390.97 C652.08,392.03 647.95,394.08 643.48,399.27 C641.73,401.30 640.42,402.66 639.43,404.22 C636.48,408.92 636.48,415.47 636.50,447.62 C636.50,450.09 636.50,452.71 636.50,455.50 L 636.50 458.89 L 636.50 458.90 C636.50,496.55 636.50,503.71 639.82,508.63 C640.69,509.92 641.80,511.06 643.20,512.57 C649.58,519.43 654.72,521.41 668.00,522.10 C677.00,522.58 707.79,522.54 724.74,522.04 ZM 101.45 491.92 C101.08,491.33 100.84,474.58 100.91,454.72 C101.01,427.31 101.33,418.41 102.27,417.81 C104.21,416.58 151.22,416.83 154.85,418.10 L 158.00 419.20 L 158.00 491.05 L 155.43 492.02 C151.80,493.41 102.31,493.31 101.45,491.92 ZM 103.02 491.00 C104.57,491.98 154.48,490.82 155.76,489.77 C156.75,488.96 156.97,481.04 156.76,454.12 L 156.50 419.50 L 129.25 419.23 L 102.00 418.97 L 101.86 444.73 C101.67,477.04 102.01,490.36 103.02,491.00 ZM 1001.66 536.41 C999.20,538.24 997.12,538.47 979.69,538.83 C962.83,539.18 960.27,539.03 959.09,537.61 C957.49,535.68 958.25,529.09 960.21,527.85 C960.92,527.40 968.99,527.02 978.14,527.02 L 994.77 527.00 L 996.39 523.60 C997.73,520.77 998.00,516.29 998.00,497.13 C998.00,476.17 997.84,473.99 996.25,473.19 C993.58,471.84 968.39,471.71 964.42,473.03 C962.53,473.65 960.54,474.99 959.99,476.01 C959.45,477.03 959.00,483.23 959.00,489.78 C959.00,490.18 959.00,490.58 959.00,490.96 C958.99,497.76 958.99,501.36 960.78,503.31 C962.90,505.61 967.52,505.60 977.60,505.84 L 992.00 506.19 L 992.00 510.99 C992.00,514.44 991.56,515.96 990.42,516.39 C987.84,517.38 961.78,517.08 958.07,516.02 C956.19,515.48 953.43,513.87 951.93,512.43 C947.71,508.39 946.73,503.04 947.16,486.32 C947.58,469.88 948.51,466.94 954.39,463.39 C957.22,461.67 959.78,461.50 983.00,461.50 L 1008.50 461.50 L 1008.50 495.18 C1008.50,527.63 1008.43,528.96 1006.44,531.62 C1005.30,533.13 1003.15,535.29 1001.66,536.41 ZM 255.42 516.39 C253.12,517.28 209.10,516.94 205.17,516.01 C203.34,515.57 200.56,514.00 199.00,512.50 C196.49,510.10 196.08,508.83 195.49,501.64 C194.95,495.17 195.16,492.64 196.49,489.31 C199.39,482.08 201.01,481.55 221.25,481.17 L 239.00 480.84 L 239.00 486.42 C239.00,490.16 238.59,492.04 237.75,492.11 C237.06,492.17 230.73,492.39 223.69,492.61 C216.64,492.82 210.00,493.46 208.94,494.03 C206.37,495.41 206.32,501.08 208.86,503.37 C210.47,504.83 212.94,505.01 227.61,504.77 L 244.50 504.50 L 244.78 490.89 C244.80,489.78 244.83,488.73 244.85,487.74 C245.03,481.02 245.12,477.21 243.29,475.04 C240.88,472.20 235.15,472.18 221.94,472.13 C220.45,472.12 218.88,472.12 217.20,472.10 L 200.90 472.00 L 201.50 461.50 L 223.38 461.23 C245.15,460.96 245.28,460.97 249.53,463.46 C256.15,467.34 257.00,471.00 257.00,495.57 C257.00,513.08 256.79,515.87 255.42,516.39 ZM 817.42 516.39 C816.55,516.73 805.19,516.98 792.17,516.96 C766.50,516.92 764.12,516.51 760.17,511.48 C758.29,509.10 758.00,507.46 758.00,499.32 C758.00,482.43 760.07,481.00 784.40,481.00 L 801.00 481.00 L 801.00 486.42 C801.00,491.63 800.88,491.87 798.00,492.50 C796.35,492.86 793.59,492.85 791.87,492.47 C787.06,491.42 772.21,492.94 770.48,494.66 C768.44,496.70 768.62,501.35 770.83,503.35 C772.38,504.75 775.25,505.00 789.83,505.00 L 807.00 505.00 L 807.00 490.65 C807.00,489.45 807.01,488.33 807.01,487.28 C807.05,480.68 807.07,477.05 805.28,475.03 C802.82,472.24 796.94,472.49 782.96,472.18 L 763.00 471.74 L 763.00 460.81 L 785.75 461.19 C807.30,461.55 808.69,461.69 812.17,463.84 C818.10,467.50 819.00,471.69 819.00,495.57 C819.00,513.08 818.79,515.87 817.42,516.39 ZM 1337.50 505.50 L 1337.50 516.50 L 1315.00 516.69 C1288.68,516.91 1285.68,516.22 1282.05,509.10 C1280.23,505.52 1280.00,503.25 1280.00,488.49 C1280.00,470.07 1280.55,467.88 1286.23,463.83 C1289.34,461.61 1290.46,461.48 1309.22,461.15 C1328.00,460.81 1329.16,460.90 1333.58,463.04 C1339.77,466.03 1341.00,469.16 1341.00,481.89 L 1341.00 491.84 L 1338.25 492.37 C1333.37,493.32 1300.69,492.90 1298.76,491.87 C1297.27,491.07 1296.96,489.93 1297.20,486.19 L 1297.50 481.50 L 1328.50 480.50 L 1328.81 477.25 C1329.08,474.48 1328.71,473.84 1326.31,472.91 C1323.27,471.73 1297.74,472.14 1294.84,473.42 C1291.75,474.77 1290.76,479.45 1291.15,490.84 C1291.39,498.00 1291.98,502.27 1292.87,503.34 C1294.02,504.73 1297.34,505.00 1315.86,505.23 ZM 937.50 494.00 L 937.50 516.50 L 913.00 516.64 C886.19,516.79 883.28,516.34 879.32,511.39 C877.29,508.85 877.01,507.41 877.01,499.50 C877.01,492.23 877.40,489.86 879.03,487.19 C882.27,481.87 885.79,481.00 904.02,481.00 L 920.10 481.00 L 919.80 486.61 L 919.50 492.22 L 905.50 492.65 C892.90,493.05 891.33,493.30 889.76,495.15 C887.76,497.50 888.28,501.74 890.81,503.75 C891.93,504.64 897.22,505.00 909.05,505.00 L 925.73 505.00 L 926.43 495.44 C927.25,484.25 926.39,475.57 924.28,473.82 C923.26,472.97 916.49,472.41 902.64,472.04 L 882.50 471.50 L 882.50 461.50 L 904.00 461.23 C924.64,460.97 925.68,461.05 930.00,463.23 C937.19,466.86 937.50,468.11 937.50,494.00 ZM 1075.50 505.50 L 1075.50 516.50 L 1053.50 516.72 C1018.74,517.06 1018.00,516.47 1018.00,488.55 C1018.00,469.72 1018.56,467.68 1024.73,463.85 C1028.36,461.59 1029.25,461.50 1048.50,461.50 C1067.86,461.50 1068.64,461.58 1072.75,463.94 C1078.00,466.94 1078.99,469.92 1078.99,482.75 C1079.00,490.85 1078.78,492.01 1077.25,492.12 C1067.70,492.77 1039.19,492.64 1037.35,491.94 C1035.32,491.17 1035.00,490.38 1035.00,486.05 L 1035.00 481.05 L 1066.50 480.50 L 1066.50 477.01 C1066.50,473.94 1066.14,473.44 1063.50,472.88 C1059.32,471.98 1043.56,471.99 1037.24,472.89 C1029.67,473.97 1029.06,475.17 1029.06,489.00 C1029.06,490.03 1029.06,490.99 1029.05,491.89 C1029.01,497.20 1028.99,500.28 1030.49,502.08 C1032.81,504.87 1038.74,504.65 1053.79,505.00 ZM 419.50 505.50 L 419.50 516.50 L 398.00 516.66 C375.70,516.82 371.83,516.43 367.44,513.55 C362.83,510.53 362.00,506.67 362.00,488.18 C362.00,472.25 362.13,471.10 364.29,467.90 C368.19,462.09 370.43,461.53 391.06,461.19 C407.45,460.92 410.19,461.11 414.56,462.81 C421.28,465.42 422.41,467.92 422.83,481.10 L 423.17 491.71 L 416.83 492.23 C408.33,492.94 381.56,492.47 380.14,491.58 C379.51,491.20 379.00,488.67 379.00,485.97 L 379.00 481.05 L 410.50 480.50 L 410.81 477.25 C411.25,472.76 408.50,471.90 394.09,472.03 C380.93,472.16 375.49,473.22 374.02,475.97 C372.54,478.73 372.75,498.96 374.29,502.00 L 375.56 504.50 ZM 1610.50 505.50 L 1610.50 516.50 L 1588.50 516.72 C1553.78,517.06 1552.97,516.41 1553.05,488.85 C1553.10,470.28 1553.99,467.07 1560.00,463.55 C1563.21,461.67 1565.15,461.50 1583.50,461.50 C1602.86,461.50 1603.64,461.58 1607.75,463.94 C1612.99,466.93 1613.99,469.93 1613.99,482.62 L 1614.00 491.74 L 1610.25 492.29 C1605.56,492.97 1572.25,492.28 1570.96,491.47 C1570.43,491.15 1570.00,488.67 1570.00,485.97 L 1570.00 481.05 L 1601.50 480.50 L 1601.50 477.01 C1601.50,473.94 1601.14,473.44 1598.50,472.88 C1594.17,471.95 1577.34,471.98 1571.58,472.93 C1568.72,473.40 1566.11,474.49 1565.33,475.56 C1563.55,478.00 1563.52,498.49 1565.29,502.00 L 1566.56 504.50 L 1588.53 505.00 ZM 1675.90 515.20 C1672.24,516.61 1667.63,516.90 1648.42,516.95 C1635.72,516.98 1625.03,516.70 1624.67,516.33 C1624.30,515.97 1624.00,513.49 1624.00,510.83 L 1624.00 506.00 L 1645.43 506.00 C1657.22,506.00 1668.01,505.57 1669.41,505.04 C1672.27,503.95 1673.85,499.58 1672.29,497.10 C1671.45,495.76 1668.28,495.42 1652.89,495.00 C1637.61,494.58 1633.86,494.17 1630.72,492.61 C1626.45,490.50 1625.48,489.09 1624.10,482.95 C1623.06,478.31 1624.32,468.55 1626.28,466.18 C1626.88,465.45 1629.07,463.99 1631.14,462.93 C1634.57,461.18 1637.20,461.00 1659.34,461.00 L 1683.77 461.00 L 1684.37 463.25 C1685.35,466.90 1685.09,470.83 1683.82,471.61 C1683.17,472.01 1673.61,472.25 1662.57,472.15 C1651.53,472.04 1641.15,472.33 1639.50,472.80 C1635.52,473.92 1633.89,478.12 1636.38,480.86 C1637.96,482.61 1639.90,482.82 1657.49,483.15 L 1676.87 483.50 L 1679.91 486.41 C1683.88,490.22 1685.32,494.85 1684.80,502.12 C1684.27,509.39 1681.90,512.88 1675.90,515.20 ZM 556.79 514.70 C553.93,516.27 550.32,516.54 528.98,516.81 C515.49,516.98 504.13,516.80 503.73,516.39 C503.33,515.99 503.00,513.49 503.00,510.83 L 503.00 506.00 L 525.28 506.00 C549.89,506.00 552.00,505.54 552.00,500.14 C552.00,495.35 550.80,495.00 534.24,495.00 C512.74,495.00 507.39,493.44 504.36,486.28 C502.50,481.89 502.64,472.55 504.63,468.36 C507.69,461.92 509.47,461.54 538.25,461.18 L 564.00 460.85 L 564.00 471.87 L 540.42 472.18 C518.89,472.47 516.72,472.66 515.49,474.34 C514.04,476.32 514.30,479.70 516.02,481.43 C516.67,482.08 524.63,482.70 536.34,483.00 C552.75,483.43 556.00,483.77 558.38,485.33 C562.16,487.80 564.00,492.69 564.00,500.22 C563.99,507.60 561.83,511.95 556.79,514.70 ZM 442.80 515.80 C441.19,517.41 433.08,517.36 432.45,515.73 C432.18,515.04 432.09,502.55 432.23,487.98 L 432.50 461.50 L 456.50 461.23 C479.73,460.97 480.65,461.04 485.00,463.23 C488.35,464.92 490.07,466.65 491.71,470.00 C493.76,474.18 493.92,475.94 493.96,494.63 L 493.96 494.65 C493.99,510.04 494.00,514.98 491.76,516.41 C490.70,517.09 489.14,516.98 486.83,516.81 L 486.82 516.81 L 482.50 516.50 L 482.00 496.50 C481.73,485.50 481.15,475.95 480.71,475.29 C479.29,473.08 472.66,472.01 460.50,472.02 C458.81,472.02 457.29,472.00 455.93,471.98 C450.45,471.91 447.46,471.87 445.83,473.35 C443.87,475.12 443.90,479.09 443.97,487.85 C443.98,489.66 444.00,491.68 444.00,493.92 C444.00,508.67 443.66,514.94 442.80,515.80 ZM 1540.50 505.50 L 1540.50 516.50 L 1519.50 516.76 C1499.92,517.00 1498.22,516.88 1494.30,514.93 C1487.22,511.41 1486.00,507.51 1486.00,488.43 C1486.00,470.32 1486.92,467.07 1493.00,463.53 C1496.23,461.66 1498.19,461.50 1518.50,461.50 L 1540.50 461.50 L 1540.50 471.50 L 1520.78 472.00 C1503.61,472.44 1500.84,472.73 1499.28,474.28 C1497.76,475.81 1497.50,477.91 1497.50,488.50 C1497.50,499.09 1497.76,501.19 1499.28,502.71 C1500.84,504.27 1503.60,504.56 1520.78,505.00 ZM 666.66 491.74 C665.16,490.64 664.97,488.89 665.22,478.49 L 665.50 466.50 L 691.00 466.22 C705.03,466.06 717.51,466.19 718.75,466.49 C720.92,467.02 721.00,467.45 721.00,478.44 C721.00,484.71 720.73,490.55 720.39,491.42 C719.86,492.80 716.60,493.00 694.08,493.00 C674.98,493.00 667.94,492.68 666.66,491.74 ZM 669.00 491.27 C669.83,491.59 681.17,491.88 694.21,491.92 C717.35,492.00 717.96,491.95 719.06,489.89 C720.24,487.69 720.05,469.71 718.84,468.50 C718.21,467.88 707.92,467.73 678.75,467.92 L 666.00 468.00 L 666.02 478.25 C666.03,488.74 666.38,490.28 669.00,491.27 ZM 1432.56 513.00 C1430.94,515.85 1425.02,517.01 1423.34,514.80 C1422.80,514.09 1420.41,509.45 1418.02,504.50 C1415.64,499.55 1410.16,488.39 1405.84,479.69 C1401.53,470.99 1398.00,463.23 1398.00,462.44 C1398.00,461.36 1399.37,461.00 1403.43,461.00 L 1408.87 461.00 L 1417.80 478.70 C1422.71,488.44 1427.15,496.55 1427.67,496.72 C1428.19,496.90 1432.62,488.93 1437.52,479.02 L 1446.43 461.00 L 1451.71 461.00 C1455.01,461.00 1457.00,461.43 1457.00,462.14 C1457.00,463.18 1435.87,507.15 1432.56,513.00 ZM 1362.80 515.74 C1361.72,517.05 1353.84,517.50 1352.67,516.33 C1352.30,515.97 1352.00,506.05 1352.00,494.29 C1352.00,474.86 1352.18,472.56 1354.01,468.98 C1357.10,462.91 1359.73,462.06 1376.18,461.76 L 1390.50 461.50 L 1390.80 466.60 L 1391.09 471.70 L 1378.92 472.26 C1370.74,472.64 1366.31,473.26 1365.41,474.16 C1364.39,475.18 1364.05,480.18 1363.96,494.99 C1363.88,506.87 1363.43,514.98 1362.80,515.74 ZM 276.54 515.74 C276.04,517.05 267.87,517.54 266.67,516.33 C266.30,515.97 266.00,506.12 266.00,494.46 C266.00,463.34 266.46,462.66 288.61,461.48 C304.23,460.64 305.27,461.02 304.80,467.41 L 304.50 471.50 L 292.54 472.25 C283.90,472.79 280.15,473.42 279.04,474.53 C277.78,475.79 277.46,479.55 277.26,495.28 C277.13,505.84 276.81,515.05 276.54,515.74 ZM 841.00 496.28 L 840.50 516.50 L 835.96 516.80 C833.47,516.96 831.10,516.77 830.71,516.38 C830.32,515.99 830.00,505.73 830.00,493.58 C830.01,473.44 830.18,471.22 831.96,468.30 C833.03,466.54 835.17,464.46 836.71,463.68 C840.56,461.73 865.58,460.41 867.56,462.05 C869.34,463.53 869.49,470.91 867.75,471.46 C867.06,471.68 861.64,472.05 855.70,472.27 C847.25,472.58 844.53,473.04 843.20,474.37 C841.75,475.82 841.43,479.01 841.00,496.28 ZM 325.77 496.39 L 325.50 516.50 L 320.96 516.80 C318.47,516.96 316.10,516.77 315.71,516.38 C315.32,515.99 315.00,505.95 315.00,494.08 C315.00,468.93 315.50,467.01 322.96,463.25 C326.82,461.30 328.98,461.00 339.02,461.00 C352.77,461.00 354.30,461.68 353.82,467.54 L 353.50 471.50 L 341.82 472.03 C334.52,472.36 330.60,472.27 328.47,474.18 C326.00,476.40 325.95,481.31 325.82,492.69 C325.80,493.85 325.79,495.08 325.77,496.39 ZM 1474.80 515.80 C1473.44,517.16 1466.39,517.44 1465.60,516.17 C1465.21,515.54 1464.69,472.58 1464.95,462.75 C1464.99,461.33 1465.92,461.00 1469.88,461.00 C1474.54,461.00 1474.78,461.14 1475.38,464.12 C1476.58,470.17 1476.09,514.51 1474.80,515.80 ZM 170.85 518.94 C178.08,515.02 184.66,508.45 185.51,504.31 C185.82,502.76 186.74,500.23 187.54,498.67 C187.79,498.18 188.00,497.47 188.18,496.34 C187.44,503.47 186.06,506.45 183.59,510.28 C179.83,516.09 175.61,519.00 166.79,521.84 C160.33,523.92 158.44,524.00 115.71,524.00 C91.30,524.00 71.03,523.70 70.67,523.33 C70.30,522.97 70.00,492.46 70.00,455.53 C70.00,404.65 70.29,388.11 71.20,387.20 C72.80,385.60 155.91,385.49 162.81,387.08 C175.66,390.05 182.05,394.63 186.41,404.00 C187.24,405.79 187.74,407.18 188.07,411.11 L 186.01 406.53 C182.76,399.27 176.47,392.39 172.17,391.36 C170.70,391.01 168.88,390.24 168.13,389.64 C166.42,388.29 79.45,386.57 74.73,387.79 L 71.50 388.63 L 71.21 452.56 C71.06,487.73 71.20,518.00 71.52,519.83 L 72.12 523.15 L 118.31 522.77 L 164.50 522.39 ZM 1759.46 478.75 C1760.88,472.41 1762.00,451.92 1761.14,447.90 C1760.63,445.48 1759.89,439.68 1759.51,435.00 C1759.05,429.29 1757.60,422.83 1755.42,416.50 C1759.91,429.17 1763.02,444.45 1762.96,454.92 C1762.91,463.86 1760.67,479.98 1758.30,488.53 C1757.22,492.40 1755.88,496.39 1755.32,497.39 C1753.59,500.49 1752.90,496.74 1753.91,489.64 C1755.03,481.71 1752.46,461.72 1749.17,449.37 C1751.82,456.87 1753.77,464.77 1755.14,473.25 C1756.40,481.00 1758.39,483.54 1759.46,478.75 ZM 1474.81 450.14 C1472.61,451.54 1465.00,451.15 1464.41,449.61 C1464.11,448.85 1464.01,446.26 1464.19,443.86 L 1464.50 439.50 L 1475.50 439.50 L 1475.81 444.40 C1476.02,447.65 1475.68,449.59 1474.81,450.14 ZM 594.50 133.59 C586.45,135.25 582.17,136.22 575.25,137.93 C583.11,135.98 586.67,135.17 592.00,134.09 C595.03,133.47 598.90,132.31 600.61,131.51 C604.27,129.78 637.45,123.00 642.22,123.00 C644.02,123.00 648.65,122.14 652.50,121.08 C656.35,120.02 662.20,118.65 665.50,118.04 C668.80,117.42 673.42,116.49 675.77,115.96 C678.11,115.43 685.54,114.53 692.27,113.96 C695.21,113.71 698.07,113.43 700.45,113.18 C694.39,114.13 688.55,115.13 683.00,116.15 C671.95,118.18 668.31,118.81 658.50,120.38 C653.00,121.25 645.89,122.65 642.70,123.49 C639.51,124.32 635.94,125.00 634.77,125.00 C633.60,125.00 631.26,125.42 629.57,125.94 C626.77,126.79 615.54,129.24 594.50,133.59 ZM 92.65 191.67 C91.76,191.48 90.88,191.30 90.00,191.13 C86.97,190.54 82.25,189.61 79.50,189.07 C72.39,187.66 58.57,187.29 58.15,188.50 C57.76,189.65 61.69,191.92 67.50,193.91 C69.70,194.66 72.62,196.03 74.00,196.96 C75.09,197.70 79.01,199.54 83.46,201.45 C80.31,200.16 77.59,199.03 76.50,198.58 C74.85,197.89 71.25,196.52 68.50,195.54 C45.17,187.21 43.54,185.49 59.62,186.23 C65.60,186.51 73.43,187.43 77.00,188.29 C80.57,189.14 86.20,190.37 89.50,191.02 C90.54,191.22 91.59,191.44 92.65,191.67 ZM 85.00 306.40 C94.90,299.73 103.04,295.39 113.06,292.77 C98.61,297.32 87.48,303.76 77.01,313.55 C72.63,317.65 68.81,321.00 68.52,321.00 C67.01,321.00 68.61,317.76 74.19,309.58 C77.59,304.59 81.44,298.94 82.74,297.04 C84.04,295.13 85.76,292.88 86.57,292.04 C88.16,290.39 90.31,287.64 92.50,284.52 C92.25,284.87 92.02,285.20 91.81,285.50 C90.24,287.70 87.10,292.42 84.84,296.00 C82.57,299.58 78.98,305.05 76.86,308.16 C71.96,315.34 71.92,317.41 76.75,312.92 C78.81,311.00 82.53,308.06 85.00,306.40 ZM 135.17 289.70 C146.59,289.12 160.85,289.44 180.00,290.33 C197.32,291.13 211.87,291.45 212.31,291.03 C212.80,290.58 210.26,288.95 207.59,287.67 L 207.63 287.68 C209.76,288.61 212.00,289.28 212.62,289.17 C213.23,289.06 214.29,289.65 214.98,290.47 C215.99,291.70 215.92,292.09 214.59,292.60 C212.91,293.25 209.57,293.05 188.00,291.00 C181.12,290.35 164.02,289.75 150.00,289.68 C143.83,289.65 139.02,289.65 135.17,289.70 ZM 1198.94 304.77 C1208.08,304.97 1215.89,305.07 1220.18,305.01 C1232.91,304.83 1236.47,305.09 1239.09,306.39 C1240.06,306.88 1241.36,307.25 1243.00,307.52 C1239.70,307.34 1236.36,307.18 1233.00,307.01 C1220.62,306.42 1206.45,305.52 1201.50,305.01 C1200.73,304.93 1199.88,304.85 1198.94,304.77 ZM 1129.68 312.18 C1121.28,311.73 1113.14,311.37 1104.00,311.02 C1091.07,310.52 1073.53,309.65 1065.00,309.09 C1059.55,308.73 1052.37,308.34 1044.58,307.95 C1054.06,308.32 1064.35,308.70 1073.00,308.98 C1089.78,309.52 1108.22,310.41 1114.00,310.95 C1117.47,311.28 1123.41,311.74 1129.68,312.18 ZM 333.06 287.63 C329.20,288.50 326.08,289.37 324.50,290.04 C323.40,290.51 321.60,291.09 320.50,291.34 C317.36,292.03 329.66,291.24 336.82,290.41 C333.61,290.91 330.50,291.44 327.50,292.00 C318.05,293.75 314.00,294.05 314.00,292.99 C314.00,291.51 317.53,290.24 325.00,289.03 C327.04,288.69 330.04,288.17 333.06,287.63 ZM 1385.40 277.22 C1387.47,277.47 1389.95,277.73 1392.50,277.97 C1405.49,279.18 1412.67,280.36 1419.50,282.40 C1422.47,283.29 1424.23,283.76 1429.62,284.79 C1425.14,283.95 1422.99,283.47 1420.88,282.93 C1418.90,282.42 1415.80,282.00 1414.00,282.00 C1412.20,282.00 1409.10,281.58 1407.12,281.08 C1405.13,280.57 1399.00,279.43 1393.50,278.55 C1390.89,278.13 1388.01,277.66 1385.40,277.22 ZM 1523.18 326.82 C1512.83,324.79 1509.00,324.57 1509.00,325.92 C1509.00,326.43 1510.46,327.15 1512.25,327.52 C1514.27,327.94 1520.04,329.56 1526.52,331.46 C1519.67,329.48 1513.53,327.81 1511.50,327.45 C1506.68,326.59 1504.00,325.31 1504.00,323.85 L 1504.00 323.82 C1504.00,323.64 1504.00,323.50 1504.06,323.38 C1504.43,322.73 1506.92,323.26 1523.93,326.87 L 1524.50 326.99 C1525.29,327.15 1526.08,327.32 1526.86,327.48 C1525.54,327.23 1524.32,327.01 1523.18,326.82 ZM 943.32 90.19 C935.75,88.79 928.32,87.58 923.00,86.94 C918.88,86.44 910.55,85.33 904.50,84.46 C897.17,83.41 875.69,82.64 852.69,82.30 C897.49,82.87 911.71,83.98 934.50,88.46 C937.16,88.98 940.56,89.65 943.32,90.19 ZM 895.98 101.86 C900.47,102.24 905.60,102.62 910.00,102.90 C917.97,103.41 927.20,104.50 930.50,105.33 C932.17,105.75 934.26,106.25 936.28,106.72 C932.55,106.01 929.12,105.54 924.00,104.98 C919.88,104.52 912.45,103.69 907.50,103.12 C903.20,102.63 899.42,102.21 895.98,101.86 ZM 1287.81 237.17 C1284.81,236.81 1281.61,236.43 1278.00,236.01 C1264.62,234.44 1256.54,233.43 1251.05,232.46 C1252.77,232.64 1254.81,232.81 1257.37,233.00 C1264.04,233.50 1272.65,234.55 1276.50,235.34 C1279.08,235.86 1283.46,236.56 1287.81,237.17 ZM 784.56 103.29 C794.61,102.42 804.67,101.66 814.50,101.03 C822.25,100.53 833.03,100.22 844.02,100.09 C826.24,100.42 805.73,101.55 784.56,103.29 ZM 1740.94 431.15 C1734.65,420.52 1726.38,409.70 1717.76,401.00 C1714.07,397.27 1710.64,393.96 1707.21,390.85 C1722.20,404.28 1733.15,417.22 1740.94,431.15 ZM 1252.20 308.04 C1260.53,308.25 1278.44,309.63 1296.24,311.34 C1282.58,310.08 1267.80,308.97 1252.20,308.04 ZM 1270.36 323.47 C1306.11,327.08 1337.94,330.87 1357.00,334.01 C1339.22,331.08 1306.15,327.12 1270.36,323.47 ZM 784.83 83.23 C775.21,83.94 764.07,84.96 753.21,86.07 C754.76,85.91 756.36,85.73 758.00,85.56 C767.59,84.53 776.14,83.77 784.83,83.23 ZM 447.90 285.02 C465.41,285.55 482.51,286.57 495.53,287.95 C483.74,286.71 468.17,285.76 447.90,285.02 ZM 343.54 289.43 C343.58,289.42 343.63,289.41 343.67,289.40 C347.80,288.78 352.32,288.22 357.16,287.72 C358.92,287.56 360.78,287.39 362.73,287.23 C356.08,287.86 349.66,288.59 343.54,289.43 ZM 131.35 203.38 C151.82,211.18 173.21,221.63 193.50,233.90 C173.33,221.70 151.80,211.19 131.35,203.38 ZM 875.48 100.32 C880.46,100.48 884.49,100.70 887.00,101.00 C887.29,101.03 887.60,101.06 887.93,101.10 C883.60,100.74 879.64,100.49 875.48,100.32 ZM 1370.82 274.63 C1371.58,274.75 1372.31,274.87 1373.00,274.97 C1375.43,275.35 1377.94,275.83 1379.26,276.17 C1378.98,276.12 1378.73,276.07 1378.50,276.03 C1375.46,275.48 1372.96,275.02 1370.82,274.63 ZM 419.57 275.26 C416.56,275.50 413.51,275.77 410.38,276.06 C406.08,276.44 401.79,276.87 397.52,277.33 C404.90,276.50 412.22,275.81 419.57,275.26 ZM 1309.85 239.88 C1327.26,242.07 1351.02,245.18 1360.50,246.56 C1355.00,245.76 1339.93,243.75 1327.00,242.08 C1320.16,241.20 1314.65,240.49 1309.85,239.88 ZM 1698.06 383.06 C1689.86,376.51 1680.55,370.17 1667.16,361.75 C1681.34,370.67 1690.16,376.72 1698.06,383.06 ZM 946.08 108.83 C950.54,109.79 955.01,110.81 958.93,111.74 C958.62,111.67 958.31,111.60 958.00,111.53 C953.78,110.57 949.27,109.55 946.08,108.83 ZM 708.03 112.01 C709.89,111.68 712.86,111.24 715.81,110.87 L 716.76 110.75 C713.81,111.16 710.90,111.58 708.03,112.01 ZM 990.47 305.99 C985.83,305.98 981.87,305.60 981.58,305.14 C981.85,305.57 985.72,305.93 990.47,305.99 ZM 96.02 279.23 C96.36,278.69 96.70,278.14 97.03,277.60 C98.87,274.56 101.00,271.83 101.75,271.54 C101.75,271.54 101.76,271.54 101.77,271.54 C101.03,271.87 99.16,274.19 97.58,276.76 C97.12,277.50 96.59,278.35 96.02,279.23 ZM 1009.73 306.47 C1002.66,306.22 996.63,306.05 992.75,306.00 C996.43,306.03 1002.83,306.21 1009.73,306.47 ZM 1194.17 316.63 C1187.09,316.08 1180.67,315.59 1174.77,315.15 C1181.13,315.62 1187.62,316.11 1194.17,316.63 ZM 718.90 90.13 C713.74,90.85 709.66,91.51 707.24,92.05 C709.73,91.50 713.52,90.87 718.90,90.13 ZM 833.32 82.12 C827.53,82.10 821.87,82.11 816.54,82.16 C821.73,82.11 827.27,82.10 833.32,82.12 ZM 1539.76 330.08 C1537.59,329.67 1534.82,329.13 1532.09,328.56 C1535.04,329.16 1537.72,329.69 1539.76,330.08 ZM 1342.40 269.85 C1342.78,269.92 1343.15,269.98 1343.50,270.05 C1344.44,270.22 1345.67,270.44 1347.10,270.70 C1345.45,270.41 1343.99,270.15 1343.00,269.96 C1342.81,269.93 1342.61,269.89 1342.40,269.85 ZM 427.43 158.00 C426.21,158.36 424.85,158.78 423.11,159.33 C425.25,158.65 426.53,158.26 427.43,158.00 Z" fill="rgb(166,163,160)"/>
</svg>
